grf
version=1
nRows=21
nColumns=19
inDegrees=yes
endheader
time	ground_force_1_vx	ground_force_1_vy	ground_force_1_vz	ground_force_1_px	ground_force_1_py	ground_force_1_pz	ground_moment_1_mx	ground_moment_1_my	ground_moment_1_mz	ground_force_2_vx	ground_force_2_vy	ground_force_2_vz	ground_force_2_px	ground_force_2_py	ground_force_2_pz	ground_moment_2_mx	ground_moment_2_my	ground_moment_2_mz
5.261000	21.745497	1368.767618	-532.613610	0.194407	0.000000	-0.786633	0.000000	1.329358	-0.000000	-6.178378	1435.104923	554.948407	0.235292	0.000000	-1.590848	-0.000000	-8.729279	-0.000000
5.262000	21.629157	1369.106578	-533.053256	0.194518	0.000000	-0.787234	0.000000	1.310378	-0.000000	-6.594191	1435.367775	555.096468	0.236216	0.000000	-1.591704	-0.000000	-8.722908	-0.000000
5.263000	21.546568	1369.424321	-533.476116	0.194708	0.000000	-0.786959	0.000000	1.292316	-0.000000	-7.001294	1435.623628	555.241857	0.235984	0.000000	-1.591578	-0.000000	-8.715767	-0.000000
5.264000	21.496531	1369.721632	-533.882729	0.195003	0.000000	-0.787797	0.000000	1.275160	-0.000000	-7.399266	1435.876465	555.384844	0.235159	0.000000	-1.591619	-0.000000	-8.707906	-0.000000
5.265000	21.477852	1369.999712	-534.273659	0.195048	0.000000	-0.786941	0.000000	1.258919	-0.000000	-7.787668	1436.129394	555.525613	0.236256	0.000000	-1.591429	-0.000000	-8.699357	-0.000000
5.266000	21.489292	1370.260526	-534.649421	0.194667	0.000000	-0.787716	0.000000	1.243623	-0.000000	-8.165995	1436.384498	555.664328	0.236357	0.000000	-1.591867	-0.000000	-8.690148	-0.000000
5.267000	21.529499	1370.506874	-535.010406	0.194763	0.000000	-0.786241	0.000000	1.229325	-0.000000	-8.533708	1436.643204	555.801177	0.236122	0.000000	-1.591290	-0.000000	-8.680281	-0.000000
5.268000	21.597065	1370.742205	-535.356822	0.194553	0.000000	-0.787301	0.000000	1.216112	-0.000000	-8.890334	1436.906796	555.936415	0.236051	0.000000	-1.592288	-0.000000	-8.669720	-0.000000
5.269000	21.690615	1370.970230	-535.688709	0.194564	0.000000	-0.786031	0.000000	1.204105	-0.000000	-9.235540	1437.176664	556.070376	0.235901	0.000000	-1.591703	-0.000000	-8.658430	-0.000000
5.270000	21.808818	1371.194527	-536.005992	0.194508	0.000000	-0.786956	0.000000	1.193446	-0.000000	-9.569113	1437.454213	556.203452	0.236736	0.000000	-1.591981	-0.000000	-8.646408	-0.000000
5.271000	21.950336	1371.418225	-536.308459	0.194746	0.000000	-0.785338	0.000000	1.184295	-0.000000	-9.890951	1437.740694	556.336044	0.236055	0.000000	-1.591709	-0.000000	-8.633703	-0.000000
5.272000	22.113798	1371.643741	-536.595734	0.194897	0.000000	-0.786881	0.000000	1.176819	-0.000000	-10.201145	1438.037187	556.468547	0.236785	0.000000	-1.591921	-0.000000	-8.620428	-0.000000
5.273000	22.297871	1371.872747	-536.867274	0.194420	0.000000	-0.786548	0.000000	1.171192	-0.000000	-10.500022	1438.344476	556.601343	0.236110	0.000000	-1.590873	-0.000000	-8.606777	-0.000000
5.274000	22.501448	1372.106284	-537.122408	0.194774	0.000000	-0.786217	0.000000	1.167589	-0.000000	-10.788040	1438.662686	556.734803	0.236453	0.000000	-1.591729	-0.000000	-8.593008	-0.000000
5.275000	22.723860	1372.344591	-537.360363	0.195267	0.000000	-0.787232	0.000000	1.166196	-0.000000	-11.065661	1438.991329	556.869262	0.236764	0.000000	-1.591598	-0.000000	-8.579432	-0.000000
5.276000	22.964914	1372.586746	-537.580294	0.194688	0.000000	-0.787325	0.000000	1.167186	-0.000000	-11.333332	1439.329823	557.004993	0.236944	0.000000	-1.591853	-0.000000	-8.566396	-0.000000
5.277000	23.224742	1372.830769	-537.781364	0.194633	0.000000	-0.786612	0.000000	1.170688	-0.000000	-11.591471	1439.677651	557.142181	0.237160	0.000000	-1.591871	-0.000000	-8.554274	-0.000000
5.278000	23.503638	1373.074091	-537.962828	0.194463	0.000000	-0.786494	0.000000	1.176774	-0.000000	-11.840396	1440.034143	557.280888	0.238304	0.000000	-1.593332	-0.000000	-8.543429	-0.000000
5.279000	23.801970	1373.313928	-538.124073	0.194525	0.000000	-0.787638	0.000000	1.185473	-0.000000	-12.080189	1440.398301	557.421058	0.237239	0.000000	-1.591760	-0.000000	-8.534156	-0.000000
5.280000	24.120146	1373.547714	-538.264619	0.194354	0.000000	-0.786800	0.000000	1.196779	-0.000000	-12.310535	1440.768816	557.562588	0.237555	0.000000	-1.592500	-0.000000	-8.526631	-0.000000
5.281000	24.458606	1373.773569	-538.384132	0.194436	0.000000	-0.787661	0.000000	1.210646	-0.000000	-12.530679	1441.144395	557.705413	0.237757	0.000000	-1.592371	-0.000000	-8.520906	-0.000000
